<svg xmlns="http://www.w3.org/2000/svg" width="1280" height="640" viewBox="0 0 1280 640">
  <defs>
    <linearGradient id="bg" x1="0" y1="0" x2="1" y2="0.6">
      <stop offset="0%" stop-color="#0a0c12"/>
      <stop offset="50%" stop-color="#0f1117"/>
      <stop offset="100%" stop-color="#1a1d2e"/>
    </linearGradient>
    <radialGradient id="glow" cx="0.5" cy="0.4" r="0.45">
      <stop offset="0%" stop-color="#00d4aa" stop-opacity="0.06"/>
      <stop offset="100%" stop-color="#00d4aa" stop-opacity="0"/>
    </radialGradient>
    <linearGradient id="accent" x1="0" y1="0" x2="1" y2="0">
      <stop offset="0%" stop-color="#00d4aa"/>
      <stop offset="100%" stop-color="#00d4aa"/>
    </linearGradient>
  </defs>

  <!-- Background (same as X banner) -->
  <rect width="1280" height="640" fill="url(#bg)"/>
  <rect width="1280" height="640" fill="url(#glow)"/>

  <!-- Top accent line -->
  <rect x="0" y="0" width="1280" height="3" fill="#00d4aa"/>

  <!-- ===== REAL LOGO (from logo.svg, scaled and centered) ===== -->
  <g transform="translate(565, 60) scale(0.75)">
    <!-- Dark circle bg -->
    <circle cx="100" cy="100" r="90" fill="#0f0f23"/>
    <circle cx="100" cy="100" r="86" fill="none" stroke="#00d4aa" stroke-width="0.5" opacity="0.15"/>

    <!-- Gauge tick marks -->
    <line x1="30.4" y1="148.8" x2="43.5" y2="139.6" stroke="#00d4aa" stroke-width="3.2" stroke-linecap="round" opacity="0.3"/>
    <line x1="23.2" y1="136.4" x2="30.4" y2="133.0" stroke="#00d4aa" stroke-width="1.5" stroke-linecap="round" opacity="0.19"/>
    <line x1="18.2" y1="123.1" x2="25.9" y2="120.9" stroke="#00d4aa" stroke-width="1.5" stroke-linecap="round" opacity="0.2"/>
    <line x1="15.5" y1="109.1" x2="31.4" y2="107.4" stroke="#00d4aa" stroke-width="3.2" stroke-linecap="round" opacity="0.37"/>
    <line x1="15.2" y1="94.9" x2="23.1" y2="95.4" stroke="#00d4aa" stroke-width="1.5" stroke-linecap="round" opacity="0.23"/>
    <line x1="17.2" y1="80.8" x2="25.0" y2="82.6" stroke="#00d4aa" stroke-width="1.5" stroke-linecap="round" opacity="0.25"/>
    <line x1="21.6" y1="67.2" x2="36.3" y2="73.4" stroke="#00d4aa" stroke-width="3.2" stroke-linecap="round" opacity="0.44"/>
    <line x1="28.2" y1="54.6" x2="34.9" y2="58.8" stroke="#00d4aa" stroke-width="1.5" stroke-linecap="round" opacity="0.28"/>
    <line x1="36.8" y1="43.2" x2="42.7" y2="48.6" stroke="#00d4aa" stroke-width="1.5" stroke-linecap="round" opacity="0.3"/>
    <line x1="47.1" y1="33.4" x2="57.1" y2="46.0" stroke="#00d4aa" stroke-width="3.2" stroke-linecap="round" opacity="0.51"/>
    <line x1="59.0" y1="25.5" x2="62.9" y2="32.6" stroke="#00d4aa" stroke-width="1.5" stroke-linecap="round" opacity="0.33"/>
    <line x1="72.0" y1="19.7" x2="74.6" y2="27.3" stroke="#00d4aa" stroke-width="1.5" stroke-linecap="round" opacity="0.34"/>
    <line x1="85.8" y1="16.2" x2="88.5" y2="32.0" stroke="#00d4aa" stroke-width="3.2" stroke-linecap="round" opacity="0.58"/>
    <line x1="100.0" y1="15.0" x2="100.0" y2="23.0" stroke="#00d4aa" stroke-width="1.5" stroke-linecap="round" opacity="0.38"/>
    <line x1="114.2" y1="16.2" x2="112.9" y2="24.1" stroke="#00d4aa" stroke-width="1.5" stroke-linecap="round" opacity="0.39"/>
    <line x1="128.0" y1="19.7" x2="122.7" y2="34.9" stroke="#00d4aa" stroke-width="3.2" stroke-linecap="round" opacity="0.65"/>
    <line x1="141.0" y1="25.5" x2="137.1" y2="32.6" stroke="#00d4aa" stroke-width="1.5" stroke-linecap="round" opacity="0.42"/>
    <line x1="152.9" y1="33.4" x2="147.9" y2="39.7" stroke="#00d4aa" stroke-width="1.5" stroke-linecap="round" opacity="0.44"/>
    <line x1="163.2" y1="43.2" x2="151.3" y2="53.9" stroke="#00d4aa" stroke-width="3.2" stroke-linecap="round" opacity="0.72"/>
    <line x1="171.8" y1="54.6" x2="165.1" y2="58.8" stroke="#00d4aa" stroke-width="1.5" stroke-linecap="round" opacity="0.47"/>
    <line x1="178.4" y1="67.2" x2="171.0" y2="70.3" stroke="#00d4aa" stroke-width="1.5" stroke-linecap="round" opacity="0.49"/>
    <line x1="182.8" y1="80.8" x2="167.2" y2="84.4" stroke="#00d4aa" stroke-width="3.2" stroke-linecap="round" opacity="0.78"/>
    <line x1="184.8" y1="94.9" x2="176.9" y2="95.4" stroke="#00d4aa" stroke-width="1.5" stroke-linecap="round" opacity="0.52"/>
    <line x1="184.5" y1="109.1" x2="176.6" y2="108.3" stroke="#00d4aa" stroke-width="1.5" stroke-linecap="round" opacity="0.53"/>
    <line x1="181.8" y1="123.1" x2="166.4" y2="118.8" stroke="#00d4aa" stroke-width="3.2" stroke-linecap="round" opacity="0.85"/>
    <line x1="176.8" y1="136.4" x2="169.6" y2="133.0" stroke="#00d4aa" stroke-width="1.5" stroke-linecap="round" opacity="0.56"/>
    <line x1="169.6" y1="148.8" x2="163.1" y2="144.2" stroke="#00d4aa" stroke-width="1.5" stroke-linecap="round" opacity="0.58"/>

    <!-- Needle -->
    <path d="M136.8,63.2 L101.98,101.98 L98.02,98.02 Z" fill="#00d4aa"/>

    <!-- "as" letters -->
    <path d="M239 -10Q155 -10 106.5 37.5Q58 85 58 162Q58 242 113.0 289.5Q168 337 264 337H398V376Q398 459 301 459Q257 459 231.0 442.0Q205 425 202 394H82Q86 468 144.5 514.0Q203 560 302 560Q407 560 465.0 511.0Q523 462 523 373V0H401V103Q394 50 351.0 20.0Q308 -10 239 -10ZM279 92Q334 92 366.0 119.0Q398 146 398 191V256H270Q229 256 205.0 233.0Q181 210 181 174Q181 137 206.5 114.5Q232 92 279 92Z" fill="#ffffff" transform="translate(55.50,119.992) scale(0.0280,-0.0280)"/>
    <path d="M277 -9Q179 -9 122.0 35.5Q65 80 65 156H188Q188 124 211.5 107.0Q235 90 277 90H321Q366 90 390.5 107.0Q415 124 415 156Q415 186 398.0 200.5Q381 215 346 220L209 238Q143 247 107.5 289.0Q72 331 72 398Q72 476 124.0 517.5Q176 559 274 559H320Q412 559 468.0 517.0Q524 475 526 405H402Q401 431 379.0 446.5Q357 462 320 462H274Q234 462 213.0 445.5Q192 429 192 401Q192 376 207.5 364.0Q223 352 253 349L382 331Q458 322 496.5 277.5Q535 233 535 158Q535 78 480.5 34.5Q426 -9 321 -9Z" fill="#ffffff" transform="translate(73.30,119.992) scale(0.0280,-0.0280)"/>
    <path d="M76 0V113H264V437H96V550H389V113H558V0Z" fill="#ffffff" transform="translate(91.10,119.992) scale(0.0280,-0.0280)"/>

    <!-- Pivot dot -->
    <circle cx="100" cy="100" r="3.5" fill="#00d4aa"/>

    <!-- "ai" letters (green) -->
    <path d="M239 -10Q155 -10 106.5 37.5Q58 85 58 162Q58 242 113.0 289.5Q168 337 264 337H398V376Q398 459 301 459Q257 459 231.0 442.0Q205 425 202 394H82Q86 468 144.5 514.0Q203 560 302 560Q407 560 465.0 511.0Q523 462 523 373V0H401V103Q394 50 351.0 20.0Q308 -10 239 -10ZM279 92Q334 92 366.0 119.0Q398 146 398 191V256H270Q229 256 205.0 233.0Q181 210 181 174Q181 137 206.5 114.5Q232 92 279 92Z" fill="#00d4aa" transform="translate(108.90,119.992) scale(0.0280,-0.0280)"/>
    <path d="M76 0V113H264V437H96V550H389V113H558V0ZM318 642Q280 642 258.0 661.5Q236 681 236 714Q236 747 258.0 766.5Q280 786 318 786Q356 786 378.0 766.5Q400 747 400 714Q400 681 378.0 661.5Q356 642 318 642Z" fill="#00d4aa" transform="translate(126.70,119.992) scale(0.0280,-0.0280)"/>

    <!-- >_ prompt -->
    <path d="M70 49V185L346 306Q366 315 388.0 321.0Q410 327 423 329Q410 331 388.0 336.5Q366 342 346 351L70 472V609L530 401V258Z" fill="#ffffff" transform="translate(79.00,162.000) scale(0.0350,-0.0350)"/>
    <path d="M60 -165V-25H540V-165Z" fill="#ffffff" transform="translate(100.00,162.000) scale(0.0350,-0.0350)"/>
  </g>

  <!-- Main value proposition -->
  <text x="640" y="310" text-anchor="middle" font-family="-apple-system, BlinkMacSystemFont, Segoe UI, Helvetica, Arial, sans-serif" font-size="42" font-weight="700" fill="#ffffff" letter-spacing="-0.5">
    Your LLM engine matters.
  </text>

  <!-- Subline -->
  <text x="640" y="365" text-anchor="middle" font-family="-apple-system, BlinkMacSystemFont, Segoe UI, Helvetica, Arial, sans-serif" font-size="24" fill="#8892a6" letter-spacing="0.2">
    Same model. Same Mac.
  </text>

  <!-- 2.4x stat highlight -->
  <text x="640" y="435" text-anchor="middle" font-family="-apple-system, BlinkMacSystemFont, Segoe UI, Helvetica, Arial, sans-serif" font-size="56" font-weight="800" fill="#00d4aa" letter-spacing="-1">
    2.4x speed difference.
  </text>

  <!-- Bottom tagline -->
  <text x="640" y="510" text-anchor="middle" font-family="SF Mono, Menlo, monospace" font-size="18" fill="#556a7f" letter-spacing="0.5">
    Benchmark 7 inference engines on Apple Silicon
  </text>

  <!-- pip install pill -->
  <rect x="460" y="538" width="360" height="36" rx="18" fill="none" stroke="#00d4aa" stroke-width="1" opacity="0.3"/>
  <text x="640" y="562" text-anchor="middle" font-family="SF Mono, Menlo, monospace" font-size="15" fill="#00d4aa" opacity="0.8">
    $ pip install asiai
  </text>

  <!-- Bottom accent line -->
  <rect x="0" y="637" width="1280" height="3" fill="#00d4aa"/>
</svg>
